<mxfile host="app.diagrams.net" modified="2024-05-06T04:41:21.307Z" agent="Mozilla/5.0 (Windows NT 10.0; Win64; x64) AppleWebKit/537.36 (KHTML, like Gecko) Chrome/124.0.0.0 Safari/537.36" etag="Ga2LgAeN4ydRhBy_yntW" version="24.3.1" type="github">
  <diagram name="第 1 页" id="IrPq14foKbm-Pphzhg5z">
    <mxGraphModel dx="1080" dy="573" grid="0" gridSize="10" guides="1" tooltips="1" connect="1" arrows="1" fold="1" page="0" pageScale="1" pageWidth="827" pageHeight="1169" math="0" shadow="0">
      <root>
        <mxCell id="0" />
        <mxCell id="1" parent="0" />
        <mxCell id="1ttG8n8Tn2scriPaTLN--1" value="" style="endArrow=classic;html=1;rounded=0;fontSize=13;" edge="1" parent="1">
          <mxGeometry width="50" height="50" relative="1" as="geometry">
            <mxPoint x="135" y="102" as="sourcePoint" />
            <mxPoint x="255" y="102" as="targetPoint" />
          </mxGeometry>
        </mxCell>
        <mxCell id="1ttG8n8Tn2scriPaTLN--2" value="查询短链接监控信息" style="text;html=1;align=center;verticalAlign=middle;resizable=0;points=[];autosize=1;strokeColor=none;fillColor=none;fontSize=13;" vertex="1" parent="1">
          <mxGeometry x="125" y="70" width="140" height="30" as="geometry" />
        </mxCell>
        <mxCell id="1ttG8n8Tn2scriPaTLN--3" value="" style="rounded=0;whiteSpace=wrap;html=1;fontSize=13;fillColor=#dae8fc;strokeColor=#6c8ebf;" vertex="1" parent="1">
          <mxGeometry x="265" y="70" width="10" height="200" as="geometry" />
        </mxCell>
        <mxCell id="1ttG8n8Tn2scriPaTLN--4" value="" style="endArrow=classic;html=1;rounded=0;fontSize=13;" edge="1" parent="1">
          <mxGeometry width="50" height="50" relative="1" as="geometry">
            <mxPoint x="285" y="102" as="sourcePoint" />
            <mxPoint x="405" y="102" as="targetPoint" />
          </mxGeometry>
        </mxCell>
        <mxCell id="1ttG8n8Tn2scriPaTLN--5" value="查询 pv、uv、uip" style="text;html=1;align=center;verticalAlign=middle;resizable=0;points=[];autosize=1;strokeColor=none;fillColor=none;fontSize=13;" vertex="1" parent="1">
          <mxGeometry x="280" y="70" width="120" height="30" as="geometry" />
        </mxCell>
        <mxCell id="1ttG8n8Tn2scriPaTLN--9" value="" style="rounded=0;whiteSpace=wrap;html=1;fontSize=13;fillColor=#dae8fc;strokeColor=#6c8ebf;" vertex="1" parent="1">
          <mxGeometry x="415" y="70" width="10" height="200" as="geometry" />
        </mxCell>
        <mxCell id="1ttG8n8Tn2scriPaTLN--10" value="" style="endArrow=classic;html=1;rounded=0;fontSize=13;" edge="1" parent="1">
          <mxGeometry width="50" height="50" relative="1" as="geometry">
            <mxPoint x="430" y="132" as="sourcePoint" />
            <mxPoint x="550" y="132" as="targetPoint" />
          </mxGeometry>
        </mxCell>
        <mxCell id="1ttG8n8Tn2scriPaTLN--11" value="查询地区" style="text;html=1;align=center;verticalAlign=middle;resizable=0;points=[];autosize=1;strokeColor=none;fillColor=none;fontSize=13;" vertex="1" parent="1">
          <mxGeometry x="445" y="100" width="80" height="30" as="geometry" />
        </mxCell>
        <mxCell id="1ttG8n8Tn2scriPaTLN--12" value="" style="rounded=0;whiteSpace=wrap;html=1;fontSize=13;fillColor=#dae8fc;strokeColor=#6c8ebf;" vertex="1" parent="1">
          <mxGeometry x="555" y="70" width="10" height="200" as="geometry" />
        </mxCell>
        <mxCell id="1ttG8n8Tn2scriPaTLN--13" value="" style="endArrow=classic;html=1;rounded=0;fontSize=13;" edge="1" parent="1">
          <mxGeometry width="50" height="50" relative="1" as="geometry">
            <mxPoint x="575" y="162" as="sourcePoint" />
            <mxPoint x="695" y="162" as="targetPoint" />
          </mxGeometry>
        </mxCell>
        <mxCell id="1ttG8n8Tn2scriPaTLN--14" value="查询操作系统" style="text;html=1;align=center;verticalAlign=middle;resizable=0;points=[];autosize=1;strokeColor=none;fillColor=none;fontSize=13;" vertex="1" parent="1">
          <mxGeometry x="580" y="130" width="100" height="30" as="geometry" />
        </mxCell>
        <mxCell id="1ttG8n8Tn2scriPaTLN--15" value="" style="rounded=0;whiteSpace=wrap;html=1;fontSize=13;fillColor=#dae8fc;strokeColor=#6c8ebf;" vertex="1" parent="1">
          <mxGeometry x="705" y="70" width="10" height="200" as="geometry" />
        </mxCell>
        <mxCell id="1ttG8n8Tn2scriPaTLN--16" value="" style="endArrow=classic;html=1;rounded=0;fontSize=13;" edge="1" parent="1">
          <mxGeometry width="50" height="50" relative="1" as="geometry">
            <mxPoint x="725" y="192" as="sourcePoint" />
            <mxPoint x="845" y="192" as="targetPoint" />
          </mxGeometry>
        </mxCell>
        <mxCell id="1ttG8n8Tn2scriPaTLN--17" value="……" style="text;html=1;align=center;verticalAlign=middle;resizable=0;points=[];autosize=1;strokeColor=none;fillColor=none;fontSize=13;" vertex="1" parent="1">
          <mxGeometry x="755" y="160" width="50" height="30" as="geometry" />
        </mxCell>
        <mxCell id="1ttG8n8Tn2scriPaTLN--18" value="" style="rounded=0;whiteSpace=wrap;html=1;fontSize=13;fillColor=#dae8fc;strokeColor=#6c8ebf;" vertex="1" parent="1">
          <mxGeometry x="855" y="70" width="10" height="200" as="geometry" />
        </mxCell>
        <mxCell id="1ttG8n8Tn2scriPaTLN--19" value="" style="endArrow=classic;html=1;rounded=0;fontSize=13;" edge="1" parent="1">
          <mxGeometry width="50" height="50" relative="1" as="geometry">
            <mxPoint x="875" y="222" as="sourcePoint" />
            <mxPoint x="995" y="222" as="targetPoint" />
          </mxGeometry>
        </mxCell>
        <mxCell id="1ttG8n8Tn2scriPaTLN--20" value="查询网络" style="text;html=1;align=center;verticalAlign=middle;resizable=0;points=[];autosize=1;strokeColor=none;fillColor=none;fontSize=13;" vertex="1" parent="1">
          <mxGeometry x="890" y="190" width="80" height="30" as="geometry" />
        </mxCell>
        <mxCell id="1ttG8n8Tn2scriPaTLN--21" value="" style="rounded=0;whiteSpace=wrap;html=1;fontSize=13;fillColor=#dae8fc;strokeColor=#6c8ebf;" vertex="1" parent="1">
          <mxGeometry x="1005" y="70" width="10" height="200" as="geometry" />
        </mxCell>
        <mxCell id="1ttG8n8Tn2scriPaTLN--22" value="" style="endArrow=classic;html=1;rounded=0;fontSize=13;" edge="1" parent="1">
          <mxGeometry width="50" height="50" relative="1" as="geometry">
            <mxPoint x="1025" y="252" as="sourcePoint" />
            <mxPoint x="1145" y="252" as="targetPoint" />
          </mxGeometry>
        </mxCell>
        <mxCell id="1ttG8n8Tn2scriPaTLN--23" value="返回结果" style="text;html=1;align=center;verticalAlign=middle;resizable=0;points=[];autosize=1;strokeColor=none;fillColor=none;fontSize=13;" vertex="1" parent="1">
          <mxGeometry x="1040" y="220" width="80" height="30" as="geometry" />
        </mxCell>
        <mxCell id="1ttG8n8Tn2scriPaTLN--24" value="" style="endArrow=classic;html=1;rounded=0;fontSize=13;" edge="1" parent="1">
          <mxGeometry width="50" height="50" relative="1" as="geometry">
            <mxPoint x="435" y="482" as="sourcePoint" />
            <mxPoint x="555" y="482" as="targetPoint" />
          </mxGeometry>
        </mxCell>
        <mxCell id="1ttG8n8Tn2scriPaTLN--25" value="查询短链接监控信息" style="text;html=1;align=center;verticalAlign=middle;resizable=0;points=[];autosize=1;strokeColor=none;fillColor=none;fontSize=13;" vertex="1" parent="1">
          <mxGeometry x="425" y="450" width="140" height="30" as="geometry" />
        </mxCell>
        <mxCell id="1ttG8n8Tn2scriPaTLN--26" value="" style="rounded=0;whiteSpace=wrap;html=1;fontSize=13;fillColor=#dae8fc;strokeColor=#6c8ebf;" vertex="1" parent="1">
          <mxGeometry x="565" y="450" width="10" height="200" as="geometry" />
        </mxCell>
        <mxCell id="1ttG8n8Tn2scriPaTLN--27" value="" style="endArrow=classic;html=1;rounded=0;fontSize=13;" edge="1" parent="1">
          <mxGeometry width="50" height="50" relative="1" as="geometry">
            <mxPoint x="585" y="482" as="sourcePoint" />
            <mxPoint x="705" y="482" as="targetPoint" />
          </mxGeometry>
        </mxCell>
        <mxCell id="1ttG8n8Tn2scriPaTLN--28" value="查询 pv、uv、uip" style="text;html=1;align=center;verticalAlign=middle;resizable=0;points=[];autosize=1;strokeColor=none;fillColor=none;fontSize=13;" vertex="1" parent="1">
          <mxGeometry x="580" y="450" width="120" height="30" as="geometry" />
        </mxCell>
        <mxCell id="1ttG8n8Tn2scriPaTLN--29" value="" style="rounded=0;whiteSpace=wrap;html=1;fontSize=13;fillColor=#dae8fc;strokeColor=#6c8ebf;" vertex="1" parent="1">
          <mxGeometry x="715" y="450" width="10" height="200" as="geometry" />
        </mxCell>
        <mxCell id="1ttG8n8Tn2scriPaTLN--42" value="" style="endArrow=classic;html=1;rounded=0;fontSize=13;" edge="1" parent="1">
          <mxGeometry width="50" height="50" relative="1" as="geometry">
            <mxPoint x="733" y="622" as="sourcePoint" />
            <mxPoint x="853" y="622" as="targetPoint" />
          </mxGeometry>
        </mxCell>
        <mxCell id="1ttG8n8Tn2scriPaTLN--43" value="返回结果" style="text;html=1;align=center;verticalAlign=middle;resizable=0;points=[];autosize=1;strokeColor=none;fillColor=none;fontSize=13;" vertex="1" parent="1">
          <mxGeometry x="748" y="590" width="80" height="30" as="geometry" />
        </mxCell>
        <mxCell id="1ttG8n8Tn2scriPaTLN--44" value="" style="endArrow=classic;html=1;rounded=0;fontSize=13;" edge="1" parent="1">
          <mxGeometry width="50" height="50" relative="1" as="geometry">
            <mxPoint x="586" y="522" as="sourcePoint" />
            <mxPoint x="706" y="522" as="targetPoint" />
          </mxGeometry>
        </mxCell>
        <mxCell id="1ttG8n8Tn2scriPaTLN--45" value="查询地区" style="text;html=1;align=center;verticalAlign=middle;resizable=0;points=[];autosize=1;strokeColor=none;fillColor=none;fontSize=13;" vertex="1" parent="1">
          <mxGeometry x="601" y="490" width="80" height="30" as="geometry" />
        </mxCell>
        <mxCell id="1ttG8n8Tn2scriPaTLN--46" value="" style="endArrow=classic;html=1;rounded=0;fontSize=13;" edge="1" parent="1">
          <mxGeometry width="50" height="50" relative="1" as="geometry">
            <mxPoint x="585" y="562" as="sourcePoint" />
            <mxPoint x="705" y="562" as="targetPoint" />
          </mxGeometry>
        </mxCell>
        <mxCell id="1ttG8n8Tn2scriPaTLN--47" value="查询操作系统" style="text;html=1;align=center;verticalAlign=middle;resizable=0;points=[];autosize=1;strokeColor=none;fillColor=none;fontSize=13;" vertex="1" parent="1">
          <mxGeometry x="590" y="530" width="100" height="30" as="geometry" />
        </mxCell>
        <mxCell id="1ttG8n8Tn2scriPaTLN--48" value="" style="endArrow=classic;html=1;rounded=0;fontSize=13;" edge="1" parent="1">
          <mxGeometry width="50" height="50" relative="1" as="geometry">
            <mxPoint x="586" y="602" as="sourcePoint" />
            <mxPoint x="706" y="602" as="targetPoint" />
          </mxGeometry>
        </mxCell>
        <mxCell id="1ttG8n8Tn2scriPaTLN--49" value="……" style="text;html=1;align=center;verticalAlign=middle;resizable=0;points=[];autosize=1;strokeColor=none;fillColor=none;fontSize=13;" vertex="1" parent="1">
          <mxGeometry x="616" y="570" width="50" height="30" as="geometry" />
        </mxCell>
        <mxCell id="1ttG8n8Tn2scriPaTLN--51" value="&lt;font style=&quot;font-size: 16px;&quot;&gt;串行执行情况&lt;/font&gt;" style="text;html=1;align=center;verticalAlign=middle;resizable=0;points=[];autosize=1;strokeColor=none;fillColor=none;" vertex="1" parent="1">
          <mxGeometry x="575" y="303" width="114" height="31" as="geometry" />
        </mxCell>
        <mxCell id="1ttG8n8Tn2scriPaTLN--52" value="&lt;font style=&quot;font-size: 16px;&quot;&gt;并行执行情况&lt;/font&gt;" style="text;html=1;align=center;verticalAlign=middle;resizable=0;points=[];autosize=1;strokeColor=none;fillColor=none;" vertex="1" parent="1">
          <mxGeometry x="590" y="667" width="114" height="31" as="geometry" />
        </mxCell>
        <mxCell id="1ttG8n8Tn2scriPaTLN--53" value="" style="endArrow=classic;html=1;rounded=0;fontSize=13;" edge="1" parent="1">
          <mxGeometry width="50" height="50" relative="1" as="geometry">
            <mxPoint x="263" y="801" as="sourcePoint" />
            <mxPoint x="383" y="801" as="targetPoint" />
          </mxGeometry>
        </mxCell>
        <mxCell id="1ttG8n8Tn2scriPaTLN--54" value="请求执行批量任务" style="text;html=1;align=center;verticalAlign=middle;resizable=0;points=[];autosize=1;strokeColor=none;fillColor=none;fontSize=13;" vertex="1" parent="1">
          <mxGeometry x="262" y="770" width="122" height="28" as="geometry" />
        </mxCell>
        <mxCell id="1ttG8n8Tn2scriPaTLN--55" value="" style="rounded=0;whiteSpace=wrap;html=1;fontSize=13;fillColor=#dae8fc;strokeColor=#6c8ebf;" vertex="1" parent="1">
          <mxGeometry x="393" y="769" width="10" height="200" as="geometry" />
        </mxCell>
        <mxCell id="1ttG8n8Tn2scriPaTLN--56" value="" style="endArrow=classic;html=1;rounded=0;fontSize=13;" edge="1" parent="1">
          <mxGeometry width="50" height="50" relative="1" as="geometry">
            <mxPoint x="413" y="801" as="sourcePoint" />
            <mxPoint x="533" y="801" as="targetPoint" />
          </mxGeometry>
        </mxCell>
        <mxCell id="1ttG8n8Tn2scriPaTLN--57" value="执行任务1" style="text;html=1;align=center;verticalAlign=middle;resizable=0;points=[];autosize=1;strokeColor=none;fillColor=none;fontSize=13;" vertex="1" parent="1">
          <mxGeometry x="430" y="770" width="77" height="28" as="geometry" />
        </mxCell>
        <mxCell id="1ttG8n8Tn2scriPaTLN--58" value="" style="rounded=0;whiteSpace=wrap;html=1;fontSize=13;fillColor=#dae8fc;strokeColor=#6c8ebf;" vertex="1" parent="1">
          <mxGeometry x="543" y="769" width="10" height="200" as="geometry" />
        </mxCell>
        <mxCell id="1ttG8n8Tn2scriPaTLN--59" value="" style="endArrow=classic;html=1;rounded=0;fontSize=13;" edge="1" parent="1">
          <mxGeometry width="50" height="50" relative="1" as="geometry">
            <mxPoint x="558" y="831" as="sourcePoint" />
            <mxPoint x="678" y="831" as="targetPoint" />
          </mxGeometry>
        </mxCell>
        <mxCell id="1ttG8n8Tn2scriPaTLN--60" value="执行任务2" style="text;html=1;align=center;verticalAlign=middle;resizable=0;points=[];autosize=1;strokeColor=none;fillColor=none;fontSize=13;" vertex="1" parent="1">
          <mxGeometry x="575" y="800" width="77" height="28" as="geometry" />
        </mxCell>
        <mxCell id="1ttG8n8Tn2scriPaTLN--61" value="" style="rounded=0;whiteSpace=wrap;html=1;fontSize=13;fillColor=#dae8fc;strokeColor=#6c8ebf;" vertex="1" parent="1">
          <mxGeometry x="683" y="769" width="10" height="200" as="geometry" />
        </mxCell>
        <mxCell id="1ttG8n8Tn2scriPaTLN--65" value="" style="endArrow=classic;html=1;rounded=0;fontSize=13;" edge="1" parent="1">
          <mxGeometry width="50" height="50" relative="1" as="geometry">
            <mxPoint x="703" y="884.5" as="sourcePoint" />
            <mxPoint x="823" y="884.5" as="targetPoint" />
          </mxGeometry>
        </mxCell>
        <mxCell id="1ttG8n8Tn2scriPaTLN--66" value="……" style="text;html=1;align=center;verticalAlign=middle;resizable=0;points=[];autosize=1;strokeColor=none;fillColor=none;fontSize=13;" vertex="1" parent="1">
          <mxGeometry x="733" y="852.5" width="50" height="30" as="geometry" />
        </mxCell>
        <mxCell id="1ttG8n8Tn2scriPaTLN--67" value="" style="rounded=0;whiteSpace=wrap;html=1;fontSize=13;fillColor=#dae8fc;strokeColor=#6c8ebf;" vertex="1" parent="1">
          <mxGeometry x="833" y="770" width="10" height="200" as="geometry" />
        </mxCell>
        <mxCell id="1ttG8n8Tn2scriPaTLN--71" value="" style="endArrow=classic;html=1;rounded=0;fontSize=13;" edge="1" parent="1">
          <mxGeometry width="50" height="50" relative="1" as="geometry">
            <mxPoint x="856" y="933" as="sourcePoint" />
            <mxPoint x="976" y="933" as="targetPoint" />
          </mxGeometry>
        </mxCell>
        <mxCell id="1ttG8n8Tn2scriPaTLN--72" value="返回结果" style="text;html=1;align=center;verticalAlign=middle;resizable=0;points=[];autosize=1;strokeColor=none;fillColor=none;fontSize=13;" vertex="1" parent="1">
          <mxGeometry x="871" y="901" width="80" height="30" as="geometry" />
        </mxCell>
        <mxCell id="1ttG8n8Tn2scriPaTLN--73" value="&lt;font style=&quot;font-size: 16px;&quot;&gt;串行执行情况&lt;/font&gt;" style="text;html=1;align=center;verticalAlign=middle;resizable=0;points=[];autosize=1;strokeColor=none;fillColor=none;" vertex="1" parent="1">
          <mxGeometry x="561" y="999" width="114" height="31" as="geometry" />
        </mxCell>
        <mxCell id="1ttG8n8Tn2scriPaTLN--74" value="" style="endArrow=classic;html=1;rounded=0;fontSize=13;" edge="1" parent="1">
          <mxGeometry width="50" height="50" relative="1" as="geometry">
            <mxPoint x="352.5" y="1239" as="sourcePoint" />
            <mxPoint x="472.5" y="1239" as="targetPoint" />
          </mxGeometry>
        </mxCell>
        <mxCell id="1ttG8n8Tn2scriPaTLN--75" value="请求执行批量任务" style="text;html=1;align=center;verticalAlign=middle;resizable=0;points=[];autosize=1;strokeColor=none;fillColor=none;fontSize=13;" vertex="1" parent="1">
          <mxGeometry x="351.5" y="1208" width="122" height="28" as="geometry" />
        </mxCell>
        <mxCell id="1ttG8n8Tn2scriPaTLN--76" value="" style="rounded=0;whiteSpace=wrap;html=1;fontSize=13;fillColor=#dae8fc;strokeColor=#6c8ebf;" vertex="1" parent="1">
          <mxGeometry x="482.5" y="1207" width="10" height="200" as="geometry" />
        </mxCell>
        <mxCell id="1ttG8n8Tn2scriPaTLN--77" value="" style="endArrow=classic;html=1;rounded=0;fontSize=13;" edge="1" parent="1">
          <mxGeometry width="50" height="50" relative="1" as="geometry">
            <mxPoint x="502.5" y="1239" as="sourcePoint" />
            <mxPoint x="622.5" y="1239" as="targetPoint" />
          </mxGeometry>
        </mxCell>
        <mxCell id="1ttG8n8Tn2scriPaTLN--78" value="缓存任务至队列" style="text;html=1;align=center;verticalAlign=middle;resizable=0;points=[];autosize=1;strokeColor=none;fillColor=none;fontSize=13;" vertex="1" parent="1">
          <mxGeometry x="503.5" y="1208" width="109" height="28" as="geometry" />
        </mxCell>
        <mxCell id="1ttG8n8Tn2scriPaTLN--79" value="" style="rounded=0;whiteSpace=wrap;html=1;fontSize=13;fillColor=#dae8fc;strokeColor=#6c8ebf;" vertex="1" parent="1">
          <mxGeometry x="632.5" y="1207" width="10" height="200" as="geometry" />
        </mxCell>
        <mxCell id="1ttG8n8Tn2scriPaTLN--80" value="" style="endArrow=classic;html=1;rounded=0;fontSize=13;" edge="1" parent="1">
          <mxGeometry width="50" height="50" relative="1" as="geometry">
            <mxPoint x="647.5" y="1269" as="sourcePoint" />
            <mxPoint x="767.5" y="1269" as="targetPoint" />
          </mxGeometry>
        </mxCell>
        <mxCell id="1ttG8n8Tn2scriPaTLN--81" value="并行执行任务" style="text;html=1;align=center;verticalAlign=middle;resizable=0;points=[];autosize=1;strokeColor=none;fillColor=none;fontSize=13;" vertex="1" parent="1">
          <mxGeometry x="655.5" y="1238" width="96" height="28" as="geometry" />
        </mxCell>
        <mxCell id="1ttG8n8Tn2scriPaTLN--82" value="" style="rounded=0;whiteSpace=wrap;html=1;fontSize=13;fillColor=#dae8fc;strokeColor=#6c8ebf;" vertex="1" parent="1">
          <mxGeometry x="772.5" y="1207" width="10" height="200" as="geometry" />
        </mxCell>
        <mxCell id="1ttG8n8Tn2scriPaTLN--83" value="" style="endArrow=classic;html=1;rounded=0;fontSize=13;" edge="1" parent="1">
          <mxGeometry width="50" height="50" relative="1" as="geometry">
            <mxPoint x="792.5" y="1322.5" as="sourcePoint" />
            <mxPoint x="912.5" y="1322.5" as="targetPoint" />
          </mxGeometry>
        </mxCell>
        <mxCell id="1ttG8n8Tn2scriPaTLN--84" value="返回结果" style="text;html=1;align=center;verticalAlign=middle;resizable=0;points=[];autosize=1;strokeColor=none;fillColor=none;fontSize=13;" vertex="1" parent="1">
          <mxGeometry x="812.5" y="1291.5" width="70" height="28" as="geometry" />
        </mxCell>
        <mxCell id="1ttG8n8Tn2scriPaTLN--88" value="&lt;font style=&quot;font-size: 16px;&quot;&gt;并行执行情况&lt;/font&gt;" style="text;html=1;align=center;verticalAlign=middle;resizable=0;points=[];autosize=1;strokeColor=none;fillColor=none;" vertex="1" parent="1">
          <mxGeometry x="580.5" y="1439" width="114" height="31" as="geometry" />
        </mxCell>
        <mxCell id="1ttG8n8Tn2scriPaTLN--89" value="" style="endArrow=classic;html=1;rounded=0;fontSize=13;" edge="1" parent="1">
          <mxGeometry width="50" height="50" relative="1" as="geometry">
            <mxPoint x="647.5" y="1294" as="sourcePoint" />
            <mxPoint x="767.5" y="1294" as="targetPoint" />
          </mxGeometry>
        </mxCell>
        <mxCell id="1ttG8n8Tn2scriPaTLN--90" value="" style="endArrow=classic;html=1;rounded=0;fontSize=13;" edge="1" parent="1">
          <mxGeometry width="50" height="50" relative="1" as="geometry">
            <mxPoint x="647.5" y="1317" as="sourcePoint" />
            <mxPoint x="767.5" y="1317" as="targetPoint" />
          </mxGeometry>
        </mxCell>
        <mxCell id="1ttG8n8Tn2scriPaTLN--91" value="" style="endArrow=classic;html=1;rounded=0;fontSize=13;" edge="1" parent="1">
          <mxGeometry width="50" height="50" relative="1" as="geometry">
            <mxPoint x="647.5" y="1342" as="sourcePoint" />
            <mxPoint x="767.5" y="1342" as="targetPoint" />
          </mxGeometry>
        </mxCell>
      </root>
    </mxGraphModel>
  </diagram>
</mxfile>
